<svg xmlns="http://www.w3.org/2000/svg" viewBox="0 0 48 48">
  <path d="M12 6C8.7099679 6 6 8.7099679 6 12L6 33.5L6 35.029297L6 36.5C6 39.532 8.468 42 11.5 42L36.5 42C39.532 42 42 39.532 42 36.5L42 35.029297L42 33.5L42 12C42 8.7099679 39.290032 6 36 6L12 6 z M 12 10L36 10C37.127968 10 38 10.872032 38 12L38 32L10 32L10 12C10 10.872032 10.872032 10 12 10 z M 15.1875 13C13.9815 13 13 13.9805 13 15.1875L13 17.8125C13 19.0185 13.9815 20 15.1875 20L17.8125 20C19.0195 20 20 19.0185 20 17.8125L20 15.1875C20 13.9805 19.0195 13 17.8125 13L15.1875 13 z M 15.1875 22C13.9815 22 13 22.9805 13 24.1875L13 26.8125C13 28.0185 13.9815 29 15.1875 29L17.8125 29C19.0195 29 20 28.0185 20 26.8125L20 24.1875C20 22.9805 19.0195 22 17.8125 22L15.1875 22 z" fill="#AAAAAA" />
</svg>