<svg xmlns="http://www.w3.org/2000/svg" viewBox="0 0 48 48">
  <path d="M13.029297 6.0253906C12.548297 6.0103906 12.070484 6.220375 11.771484 6.609375C11.473484 6.998375 11.38325 7.5095625 11.53125 7.9765625C11.84325 8.9555625 12 9.973 12 11C12 15.963 8.43825 20.114141 3.53125 20.869141C3.04625 20.944141 2.6281094 21.250406 2.4121094 21.691406C2.1961094 22.132406 2.2092656 22.650078 2.4472656 23.080078C3.5712656 25.101078 5.265 26.678172 7.25 27.701172C8.771 25.833172 10.945734 24.516047 13.427734 24.123047C14.687734 19.246047 18.615734 15.440938 23.552734 14.335938C22.230734 9.7029375 18.083297 6.2573906 13.029297 6.0253906 z M 26.5 16C20.667 16 15.834656 20.365 15.097656 26L15 26C10.589 26 7 29.589 7 34C7 38.411 10.589 42 15 42L38 42C42.411 42 46 38.411 46 34C46 29.589 42.411 26 38 26L37.902344 26C37.165344 20.365 32.333 16 26.5 16 z" fill="#AAAAAA" />
</svg>