<svg xmlns="http://www.w3.org/2000/svg" viewBox="0 0 48 48">
  <path d="M13.5 3C10.467 3 8 5.468 8 8.5L8 34L8 35.5L8 36.5C8 39.363 10.201 41.720609 13 41.974609L13 38.949219C12.022455 38.75028 11.254766 37.976735 11.054688 37L38.5 37C39.329 37 40 36.328 40 35.5L40 8.5C40 5.468 37.533 3 34.5 3L13.5 3 z M 16 10C17.105 10 18 10.895 18 12C18 13.105 17.105 14 16 14C14.895 14 14 13.105 14 12C14 10.895 14.895 10 16 10 z M 16 18C17.105 18 18 18.895 18 20C18 21.105 17.105 22 16 22C14.895 22 14 21.105 14 20C14 18.895 14.895 18 16 18 z M 16 26C17.105 26 18 26.895 18 28C18 29.105 17.105 30 16 30C14.895 30 14 29.105 14 28C14 26.895 14.895 26 16 26 z M 15 39L15 45.5C15 46.106 15.364781 46.652766 15.925781 46.884766C16.486781 47.119766 17.132547 46.989547 17.560547 46.560547L19.5 44.621094L21.439453 46.560547C21.726453 46.847547 22.109 47 22.5 47C22.693 47 22.889219 46.963719 23.074219 46.886719C23.635219 46.653719 24 46.106 24 45.5L24 39L15 39 z M 26 39L26 42L38.5 42C39.329 42 40 41.328 40 40.5C40 39.672 39.329 39 38.5 39L26 39 z" fill="#AAAAAA" />
</svg>