<svg xmlns="http://www.w3.org/2000/svg" viewBox="0 0 48 48">
  <path d="M11 6C7.686 6 5 8.686 5 12L5 13L5 15.5L5 36.029297C5 39.319329 7.7099679 42.029297 11 42.029297L37 42.029297C40.290032 42.029297 43 39.319329 43 36.029297L43 15.5L43 13L43 12C43 8.686 40.314 6 37 6L11 6 z M 10.5 10C11.328 10 12 10.672 12 11.5C12 12.328 11.328 13 10.5 13C9.672 13 9 12.328 9 11.5C9 10.672 9.672 10 10.5 10 z M 15.5 10C16.328 10 17 10.672 17 11.5C17 12.328 16.328 13 15.5 13C14.672 13 14 12.328 14 11.5C14 10.672 14.672 10 15.5 10 z M 21.5 10L37.5 10C38.328 10 39 10.672 39 11.5C39 12.328 38.328 13 37.5 13L21.5 13C20.672 13 20 12.328 20 11.5C20 10.672 20.672 10 21.5 10 z M 9 17L39 17L39 36.029297C39 37.157265 38.127968 38.029297 37 38.029297L11 38.029297C9.8720321 38.029297 9 37.157265 9 36.029297L9 17 z M 13.5 20C12.672 20 12 20.672 12 21.5L12 27.5C12 28.328 12.672 29 13.5 29L22.5 29C23.328 29 24 28.328 24 27.5L24 21.5C24 20.672 23.328 20 22.5 20L13.5 20 z M 28.5 20C27.672 20 27 20.672 27 21.5L27 33.5C27 34.328 27.672 35 28.5 35L34.5 35C35.328 35 36 34.328 36 33.5L36 21.5C36 20.672 35.328 20 34.5 20L28.5 20 z M 13.5 32 A 1.50015 1.50015 0 1 0 13.5 35L22.5 35 A 1.50015 1.50015 0 1 0 22.5 32L13.5 32 z" fill="#AAAAAA" />
</svg>