<svg xmlns="http://www.w3.org/2000/svg" viewBox="0 0 48 48">
  <path d="M24 4C19.589 4 16 7.589 16 12C16 16.411 19.589 20 24 20C28.411 20 32 16.411 32 12C32 7.589 28.411 4 24 4 z M 14.5 24C12.019 24 10 26.019 10 28.5L10 39.5C10 40.028301 10.107329 40.528629 10.275391 41L8.5 41 A 1.50015 1.50015 0 1 0 8.5 44L14.5 44L33.5 44L39.5 44 A 1.50015 1.50015 0 1 0 39.5 41L37.724609 41C37.892671 40.528629 38 40.028301 38 39.5L38 28.5C38 26.019 35.981 24 33.5 24L14.5 24 z M 24 32C25.105 32 26 32.896 26 34C26 35.104 25.105 36 24 36C22.895 36 22 35.104 22 34C22 32.896 22.895 32 24 32 z" fill="#AAAAAA" />
</svg>